<svg xmlns="http://www.w3.org/2000/svg" width="1925.373" height="196.172" viewBox="0 0 1925.373 196.172"><path d="M2480.594,753.022l63.127-51.328,27.355-28.025,65.231-47.426,37.876,34.492,39.98,62.516,73.648,29.771,70.505-29.771L2930.9,647.8l56.814-21.557,31.563,21.557,75.752,53.894,31.563,36.648h88.378l73.648-36.648,92.586-40.959,67.335-34.492,64.617,47.426,52.451,49.582,47.524-34.492,66.873,49.582,54.71-36.648,77.856-53.894,42.085-21.557,36.12,34.492,25.013,40.959,20.932,21.557,67.335,29.771,63.127,19.811h69.44v36.648H2211.252V613.309L2284.9,688.76l73.648,49.582h71.474Z" transform="translate(-2211.252 -613.309)"/></svg>